<?xml version="1.0" encoding="UTF-8" standalone="no"?>
<svg width="173px" height="173px" viewBox="0 0 173 173" version="1.1" xmlns="http://www.w3.org/2000/svg" xmlns:xlink="http://www.w3.org/1999/xlink">
    <!-- Generator: Sketch 3.8.3 (29802) - http://www.bohemiancoding.com/sketch -->
    <title>Big Logo</title>
    <desc>Created with Sketch.</desc>
    <defs>
        <linearGradient x1="50%" y1="82.938058%" x2="50%" y2="0%" id="linearGradient-1">
            <stop stop-color="#FF0000" offset="0%"></stop>
            <stop stop-color="#FF00E6" offset="100%"></stop>
        </linearGradient>
        <path d="M43,40 L51,40 L51,48 L43,48 L43,40 Z M53,40 L61,40 L61,48 L53,48 L53,40 Z M63,40 L71,40 L71,48 L63,48 L63,40 Z M43,50 L51,50 L51,58 L43,58 L43,50 Z M33,50 L41,50 L41,58 L33,58 L33,50 Z M53,50 L61,50 L61,58 L53,58 L53,50 Z M63,50 L71,50 L71,58 L63,58 L63,50 Z M73,50 L81,50 L81,58 L73,58 L73,50 Z M43,60 L51,60 L51,68 L43,68 L43,60 Z M33,60 L41,60 L41,68 L33,68 L33,60 Z M23,60 L31,60 L31,68 L23,68 L23,60 Z M53,60 L61,60 L61,68 L53,68 L53,60 Z M63,60 L71,60 L71,68 L63,68 L63,60 Z M73,60 L81,60 L81,68 L73,68 L73,60 Z M43,70 L51,70 L51,78 L43,78 L43,70 Z M33,70 L41,70 L41,78 L33,78 L33,70 Z M23,70 L31,70 L31,78 L23,78 L23,70 Z M53,70 L61,70 L61,78 L53,78 L53,70 Z M63,70 L71,70 L71,78 L63,78 L63,70 Z M73,70 L81,70 L81,78 L73,78 L73,70 Z M83,60 L91,60 L91,68 L83,68 L83,60 Z M83,70 L91,70 L91,78 L83,78 L83,70 Z M43,80 L51,80 L51,88 L43,88 L43,80 Z M33,80 L41,80 L41,88 L33,88 L33,80 Z M23,80 L31,80 L31,88 L23,88 L23,80 Z M53,80 L61,80 L61,88 L53,88 L53,80 Z M63,80 L71,80 L71,88 L63,88 L63,80 Z M73,80 L81,80 L81,88 L73,88 L73,80 Z M83,80 L91,80 L91,88 L83,88 L83,80 Z M43,90 L51,90 L51,98 L43,98 L43,90 Z M33,90 L41,90 L41,98 L33,98 L33,90 Z M53,90 L61,90 L61,98 L53,98 L53,90 Z M63,90 L71,90 L71,98 L63,98 L63,90 Z M73,90 L81,90 L81,98 L73,98 L73,90 Z M83,90 L91,90 L91,98 L83,98 L83,90 Z M43,100 L51,100 L51,108 L43,108 L43,100 Z M53,100 L61,100 L61,108 L53,108 L53,100 Z M63,100 L71,100 L71,108 L63,108 L63,100 Z M73,100 L81,100 L81,108 L73,108 L73,100 Z M83,100 L91,100 L91,108 L83,108 L83,100 Z M53,110 L61,110 L61,118 L53,118 L53,110 Z M63,110 L71,110 L71,118 L63,118 L63,110 Z M73,110 L81,110 L81,118 L73,118 L73,110 Z M83,110 L91,110 L91,118 L83,118 L83,110 Z M63,120 L71,120 L71,128 L63,128 L63,120 Z M73,120 L81,120 L81,128 L73,128 L73,120 Z M123,40 L131,40 L131,48 L123,48 L123,40 Z M113,40 L121,40 L121,48 L113,48 L113,40 Z M103,40 L111,40 L111,48 L103,48 L103,40 Z M123,50 L131,50 L131,58 L123,58 L123,50 Z M133,50 L141,50 L141,58 L133,58 L133,50 Z M113,50 L121,50 L121,58 L113,58 L113,50 Z M103,50 L111,50 L111,58 L103,58 L103,50 Z M93,50 L101,50 L101,58 L93,58 L93,50 Z M123,60 L131,60 L131,68 L123,68 L123,60 Z M133,60 L141,60 L141,68 L133,68 L133,60 Z M143,60 L151,60 L151,68 L143,68 L143,60 Z M113,60 L121,60 L121,68 L113,68 L113,60 Z M103,60 L111,60 L111,68 L103,68 L103,60 Z M93,60 L101,60 L101,68 L93,68 L93,60 Z M123,70 L131,70 L131,78 L123,78 L123,70 Z M133,70 L141,70 L141,78 L133,78 L133,70 Z M143,70 L151,70 L151,78 L143,78 L143,70 Z M113,70 L121,70 L121,78 L113,78 L113,70 Z M103,70 L111,70 L111,78 L103,78 L103,70 Z M93,70 L101,70 L101,78 L93,78 L93,70 Z M123,80 L131,80 L131,88 L123,88 L123,80 Z M133,80 L141,80 L141,88 L133,88 L133,80 Z M143,80 L151,80 L151,88 L143,88 L143,80 Z M113,80 L121,80 L121,88 L113,88 L113,80 Z M103,80 L111,80 L111,88 L103,88 L103,80 Z M93,80 L101,80 L101,88 L93,88 L93,80 Z M123,90 L131,90 L131,98 L123,98 L123,90 Z M133,90 L141,90 L141,98 L133,98 L133,90 Z M113,90 L121,90 L121,98 L113,98 L113,90 Z M103,90 L111,90 L111,98 L103,98 L103,90 Z M93,90 L101,90 L101,98 L93,98 L93,90 Z M123,100 L131,100 L131,108 L123,108 L123,100 Z M113,100 L121,100 L121,108 L113,108 L113,100 Z M103,100 L111,100 L111,108 L103,108 L103,100 Z M93,100 L101,100 L101,108 L93,108 L93,100 Z M113,110 L121,110 L121,118 L113,118 L113,110 Z M103,110 L111,110 L111,118 L103,118 L103,110 Z M93,110 L101,110 L101,118 L93,118 L93,110 Z M103,120 L111,120 L111,128 L103,128 L103,120 Z M93,120 L101,120 L101,128 L93,128 L93,120 Z M83,120 L91,120 L91,128 L83,128 L83,120 Z M83,130 L91,130 L91,138 L83,138 L83,130 Z M73,130 L81,130 L81,138 L73,138 L73,130 Z M93,130 L101,130 L101,138 L93,138 L93,130 Z M83,140 L91,140 L91,148 L83,148 L83,140 Z" id="path-2"></path>
    </defs>
    <g id="Page-1" stroke="none" stroke-width="1" fill="none" fill-rule="evenodd">
        <g id="Artboard-3" transform="translate(-41.000000, -99.000000)">
            <g id="Big-Logo" transform="translate(41.000000, 99.000000)">
                <path d="M86.5,169 L86.5,169 C132.063492,169 169,132.063492 169,86.5 C169,40.9365081 132.063492,4 86.5,4 C40.9365081,4 4,40.9365081 4,86.5 C4,132.063492 40.9365081,169 86.5,169 L86.5,169 Z M86.5,173 L86.5,173 C38.7273691,173 0,134.272631 0,86.5 C0,38.7273691 38.7273691,0 86.5,0 C134.272631,0 173,38.7273691 173,86.5 C173,134.272631 134.272631,173 86.5,173 L86.5,173 Z" id="Oval-1" fill="url(#linearGradient-1)"></path>
                <mask id="mask-3" fill="white">
                    <use xlink:href="#path-2"></use>
                </mask>
                <use id="Combined-Shape" fill="#FF0000" xlink:href="#path-2"></use>
                <rect id="Rectangle-276" fill="url(#linearGradient-1)" mask="url(#mask-3)" x="-1" y="0" width="174" height="174"></rect>
            </g>
        </g>
    </g>
</svg>